<?xml version="1.0" encoding="UTF-8" standalone="no"?>
<!-- Created with Inkscape (http://www.inkscape.org/) -->

<svg
   width="100mm"
   height="100mm"
   viewBox="0 0 100 100"
   version="1.1"
   id="svg5"
   inkscape:export-filename="bitmap.svg"
   inkscape:export-xdpi="96"
   inkscape:export-ydpi="96"
   sodipodi:docname="sheep.svg"
   inkscape:version="1.2.1 (9c6d41e410, 2022-07-14)"
   xmlns:inkscape="http://www.inkscape.org/namespaces/inkscape"
   xmlns:sodipodi="http://sodipodi.sourceforge.net/DTD/sodipodi-0.dtd"
   xmlns="http://www.w3.org/2000/svg"
   xmlns:svg="http://www.w3.org/2000/svg">
  <sodipodi:namedview
     id="namedview7"
     pagecolor="#505050"
     bordercolor="#ffffff"
     borderopacity="1"
     inkscape:showpageshadow="0"
     inkscape:pageopacity="0"
     inkscape:pagecheckerboard="1"
     inkscape:deskcolor="#505050"
     inkscape:document-units="mm"
     showgrid="false"
     inkscape:zoom="1.4912879"
     inkscape:cx="153.55855"
     inkscape:cy="193.45695"
     inkscape:window-width="1920"
     inkscape:window-height="1004"
     inkscape:window-x="1920"
     inkscape:window-y="0"
     inkscape:window-maximized="1"
     inkscape:current-layer="layer1" />
  <defs
     id="defs2" />
  <g
     inkscape:label="Layer 1"
     inkscape:groupmode="layer"
     id="layer1">
    <path
       id="path396"
       style="fill:#ffffff;stroke:#000000;stroke-width:0"
       inkscape:transform-center-x="-0.040632402"
       inkscape:transform-center-y="-4.7587189"
       d="m 79.421249,90.718662 c -3.54312,2.56033 -9.98881,1.01519 -14.07381,2.57116 -4.085,1.55598 -5.87802,6.239226 -10.2265,6.684812 -4.34849,0.445576 -7.22002,-5.117052 -11.535649,-5.812232 -4.31563,-0.69518 -10.147939,3.46541 -14.136609,1.67686 -3.98867,-1.78857 -5.496494,-7.68262 -8.886382,-10.44267 C 17.17241,82.636542 11.843445,82.964062 9.2833522,79.420602 6.7232604,75.877149 8.733149,70.375735 7.1773194,66.290356 5.6214894,62.204978 0.47377644,59.466929 0.02823644,55.118042 -0.41730455,50.769154 4.5470764,47.917919 5.2421884,43.601891 5.9373014,39.285863 2.3748354,33.432458 4.1632284,29.44342 c 1.788395,-3.989038 8.2396056,-4.771471 10.9994056,-8.161672 2.7598,-3.390202 1.874601,-9.445188 5.417731,-12.005517 3.543129,-2.5603284 9.177124,0.731061 13.262126,-0.8249124 4.085,-1.555974 6.689709,-7.98547799 11.038195,-8.43105999 4.348483,-0.4455819 7.429623,6.59984599 11.745253,7.29502199 4.31563,0.695177 9.93833,-4.948207 13.927,-3.159647 3.98867,1.788558 5.1346,8.7091824 8.52449,11.4692374 3.38988,2.760054 9.08075,1.405958 11.64083,4.949414 2.5601,3.543457 -1.0631,9.786322 0.49273,13.8717 1.55583,4.085378 8.316856,6.081976 8.762394,10.430864 0.445537,4.348887 -4.840964,8.820255 -5.536074,13.136284 -0.6951,4.316028 3.189476,8.5493 1.40108,12.538338 -1.78839,3.989038 -7.74866,5.679421 -10.50847,9.069611 -2.75979,3.3902 -2.36553,8.53724 -5.90867,11.09758 z"
       sodipodi:nodetypes="ssssssssssssssszsssssssss" />
    <path
       style="fill:#000000;stroke:#000000;stroke-width:0"
       d="m 26.085659,31.949899 c 2.083424,2.32632 11.683953,2.017029 12.828228,-3.835608 6.945267,5.831485 13.943672,5.182998 16.446202,1.567933 3.10676,4.338615 13.09874,5.43175 17.40529,0.837039 0.1254,9.537322 -5.21919,16.167241 -10.12662,25.828681 -4.6096,9.075085 -2.33,24.681438 -12.64492,24.635258 C 39.815394,80.937642 41.207181,67.333987 36.937583,57.979399 33.09141,49.552523 23.748494,37.982774 26.085659,31.949899 Z"
       id="path1165"
       sodipodi:nodetypes="ccccsssc" />
    <ellipse
       style="fill:#ffffff;stroke:#000000;stroke-width:0"
       id="path1271"
       cx="39.289463"
       cy="42.013287"
       rx="2.8395898"
       ry="2.8748763" />
    <ellipse
       style="fill:#ffffff;stroke:#000000;stroke-width:0"
       id="path1271-3"
       cx="59.472965"
       cy="41.807095"
       rx="2.8395898"
       ry="2.8748763" />
    <ellipse
       style="fill:#ffffff;stroke:#000000;stroke-width:0"
       id="path1271-3-6"
       cx="50.06345"
       cy="75.845482"
       rx="2.8395898"
       ry="2.8748763" />
    <path
       style="fill:#1a1a1a;stroke:#000000;stroke-width:0"
       d="M 23.271256,29.229829 C 22.540463,36.420643 20.30157,38.974532 13.432381,40.225054 13.614194,32.77644 18.74728,29.711332 23.271256,29.229829 Z"
       id="path1383"
       sodipodi:nodetypes="ccc" />
    <path
       style="fill:#1a1a1a;stroke:#000000;stroke-width:0"
       d="m 75.297519,28.059163 c 7.04229,1.66467 9.2844,4.215744 9.62674,11.180963 -7.37004,-1.154827 -9.74084,-6.638508 -9.62674,-11.180963 z"
       id="path1383-7"
       sodipodi:nodetypes="ccc" />
    <rect
       style="fill:#ffffff;stroke:#000000;stroke-width:0"
       id="rect1464"
       width="0.66989452"
       height="5.2056704"
       x="49.823284"
       y="77.772766" />
  </g>
</svg>
